<mxfile host="app.diagrams.net" modified="2021-12-07T04:01:07.193Z" agent="5.0 (Macintosh; Intel Mac OS X 10_15_7) AppleWebKit/537.36 (KHTML, like Gecko) Chrome/96.0.4664.55 Safari/537.36" etag="2OAXRGBhRPuW2hURpEou" version="15.8.3" type="github">
  <diagram id="C5RBs43oDa-KdzZeNtuy" name="Page-1">
    <mxGraphModel dx="1426" dy="793" grid="1" gridSize="10" guides="1" tooltips="1" connect="1" arrows="1" fold="1" page="1" pageScale="1" pageWidth="827" pageHeight="1169" math="0" shadow="0">
      <root>
        <mxCell id="WIyWlLk6GJQsqaUBKTNV-0" />
        <mxCell id="WIyWlLk6GJQsqaUBKTNV-1" parent="WIyWlLk6GJQsqaUBKTNV-0" />
        <mxCell id="WIyWlLk6GJQsqaUBKTNV-3" value="run.ts" style="rounded=1;whiteSpace=wrap;html=1;fontSize=12;glass=0;strokeWidth=1;shadow=0;fillColor=#d5e8d4;strokeColor=#82b366;" parent="WIyWlLk6GJQsqaUBKTNV-1" vertex="1">
          <mxGeometry x="160" y="80" width="120" height="40" as="geometry" />
        </mxCell>
        <mxCell id="mAG1Wt8QwnZHLgBALhmB-4" value="" style="edgeStyle=orthogonalEdgeStyle;curved=0;rounded=1;sketch=0;orthogonalLoop=1;jettySize=auto;html=1;fontColor=#46495D;strokeColor=#788AA3;fillColor=#B2C9AB;" edge="1" parent="WIyWlLk6GJQsqaUBKTNV-1" source="mAG1Wt8QwnZHLgBALhmB-0" target="mAG1Wt8QwnZHLgBALhmB-3">
          <mxGeometry relative="1" as="geometry" />
        </mxCell>
        <mxCell id="mAG1Wt8QwnZHLgBALhmB-0" value="resigtry = new MiniRegistry()" style="rounded=1;whiteSpace=wrap;html=1;fillColor=#d5e8d4;strokeColor=#82b366;align=center;" vertex="1" parent="WIyWlLk6GJQsqaUBKTNV-1">
          <mxGeometry x="354" y="70" width="166" height="60" as="geometry" />
        </mxCell>
        <mxCell id="mAG1Wt8QwnZHLgBALhmB-1" value="&lt;span&gt;包：mini-types/my&lt;br&gt;&lt;div style=&quot;text-align: left&quot;&gt;&lt;span&gt;仓库：appx-types&lt;/span&gt;&lt;/div&gt;&lt;/span&gt;" style="rounded=0;whiteSpace=wrap;html=1;sketch=0;strokeColor=#82b366;fillColor=#d5e8d4;" vertex="1" parent="WIyWlLk6GJQsqaUBKTNV-1">
          <mxGeometry x="160" width="120" height="60" as="geometry" />
        </mxCell>
        <mxCell id="mAG1Wt8QwnZHLgBALhmB-2" value="" style="endArrow=none;dashed=1;html=1;rounded=1;sketch=0;fontColor=#46495D;strokeColor=#788AA3;fillColor=#B2C9AB;curved=0;exitX=1;exitY=0.5;exitDx=0;exitDy=0;entryX=0;entryY=0.5;entryDx=0;entryDy=0;" edge="1" parent="WIyWlLk6GJQsqaUBKTNV-1" source="WIyWlLk6GJQsqaUBKTNV-3" target="mAG1Wt8QwnZHLgBALhmB-0">
          <mxGeometry width="50" height="50" relative="1" as="geometry">
            <mxPoint x="390" y="290" as="sourcePoint" />
            <mxPoint x="440" y="240" as="targetPoint" />
          </mxGeometry>
        </mxCell>
        <mxCell id="mAG1Wt8QwnZHLgBALhmB-6" value="" style="edgeStyle=orthogonalEdgeStyle;curved=0;rounded=1;sketch=0;orthogonalLoop=1;jettySize=auto;html=1;fontColor=#46495D;strokeColor=#788AA3;fillColor=#B2C9AB;" edge="1" parent="WIyWlLk6GJQsqaUBKTNV-1" source="mAG1Wt8QwnZHLgBALhmB-3" target="mAG1Wt8QwnZHLgBALhmB-5">
          <mxGeometry relative="1" as="geometry" />
        </mxCell>
        <mxCell id="mAG1Wt8QwnZHLgBALhmB-3" value="registry.analyze()" style="whiteSpace=wrap;html=1;rounded=1;align=center;strokeColor=#82b366;fillColor=#d5e8d4;" vertex="1" parent="WIyWlLk6GJQsqaUBKTNV-1">
          <mxGeometry x="377" y="180" width="120" height="40" as="geometry" />
        </mxCell>
        <mxCell id="mAG1Wt8QwnZHLgBALhmB-8" value="" style="edgeStyle=orthogonalEdgeStyle;curved=0;rounded=1;sketch=0;orthogonalLoop=1;jettySize=auto;html=1;fontColor=#46495D;strokeColor=#788AA3;fillColor=#B2C9AB;" edge="1" parent="WIyWlLk6GJQsqaUBKTNV-1" source="mAG1Wt8QwnZHLgBALhmB-5" target="mAG1Wt8QwnZHLgBALhmB-7">
          <mxGeometry relative="1" as="geometry" />
        </mxCell>
        <mxCell id="mAG1Wt8QwnZHLgBALhmB-5" value="设置内容输出到的&lt;br&gt;目录及文件名" style="whiteSpace=wrap;html=1;rounded=1;align=center;strokeColor=#82b366;fillColor=#d5e8d4;" vertex="1" parent="WIyWlLk6GJQsqaUBKTNV-1">
          <mxGeometry x="377" y="260" width="120" height="60" as="geometry" />
        </mxCell>
        <mxCell id="mAG1Wt8QwnZHLgBALhmB-10" value="" style="edgeStyle=orthogonalEdgeStyle;curved=0;rounded=1;sketch=0;orthogonalLoop=1;jettySize=auto;html=1;fontColor=#46495D;strokeColor=#788AA3;fillColor=#B2C9AB;" edge="1" parent="WIyWlLk6GJQsqaUBKTNV-1" source="mAG1Wt8QwnZHLgBALhmB-7" target="mAG1Wt8QwnZHLgBALhmB-9">
          <mxGeometry relative="1" as="geometry" />
        </mxCell>
        <mxCell id="mAG1Wt8QwnZHLgBALhmB-7" value="registry.getDTS()&amp;nbsp;&lt;br&gt;（？？）" style="whiteSpace=wrap;html=1;rounded=1;align=center;strokeColor=#82b366;fillColor=#d5e8d4;" vertex="1" parent="WIyWlLk6GJQsqaUBKTNV-1">
          <mxGeometry x="377" y="370" width="120" height="60" as="geometry" />
        </mxCell>
        <mxCell id="mAG1Wt8QwnZHLgBALhmB-9" value="将输出的 dts 内容写入第三步得到的文件" style="whiteSpace=wrap;html=1;rounded=1;align=center;strokeColor=#82b366;fillColor=#d5e8d4;" vertex="1" parent="WIyWlLk6GJQsqaUBKTNV-1">
          <mxGeometry x="350.5" y="470" width="173" height="60" as="geometry" />
        </mxCell>
        <mxCell id="mAG1Wt8QwnZHLgBALhmB-11" value="" style="endArrow=none;dashed=1;html=1;rounded=1;sketch=0;fontColor=#46495D;strokeColor=#788AA3;fillColor=#B2C9AB;curved=0;exitX=1;exitY=0.5;exitDx=0;exitDy=0;" edge="1" parent="WIyWlLk6GJQsqaUBKTNV-1" source="mAG1Wt8QwnZHLgBALhmB-0">
          <mxGeometry width="50" height="50" relative="1" as="geometry">
            <mxPoint x="530" y="290" as="sourcePoint" />
            <mxPoint x="580" y="100" as="targetPoint" />
          </mxGeometry>
        </mxCell>
        <mxCell id="mAG1Wt8QwnZHLgBALhmB-12" value="" style="rounded=1;whiteSpace=wrap;html=1;sketch=0;strokeColor=#6c8ebf;fillColor=#dae8fc;align=center;" vertex="1" parent="WIyWlLk6GJQsqaUBKTNV-1">
          <mxGeometry x="580" y="70" width="120" height="60" as="geometry" />
        </mxCell>
        <mxCell id="mAG1Wt8QwnZHLgBALhmB-13" value="src/registry/index.ts" style="rounded=0;whiteSpace=wrap;html=1;sketch=0;strokeColor=#6c8ebf;fillColor=#dae8fc;align=center;" vertex="1" parent="WIyWlLk6GJQsqaUBKTNV-1">
          <mxGeometry x="580" width="120" height="60" as="geometry" />
        </mxCell>
      </root>
    </mxGraphModel>
  </diagram>
</mxfile>
